<?xml version="1.0" standalone="no"?>
<!DOCTYPE svg PUBLIC "-//W3C//DTD SVG 20010904//EN"
 "http://www.w3.org/TR/2001/REC-SVG-20010904/DTD/svg10.dtd">
<svg version="1.0" xmlns="http://www.w3.org/2000/svg"
 width="220.000000pt" height="220.000000pt" viewBox="0 0 220.000000 220.000000"
 preserveAspectRatio="xMidYMid meet">

<g transform="translate(0.000000,220.000000) scale(0.100000,-0.100000)"
fill="#000000" stroke="none">
<path d="M831 2057 c-6 -12 -17 -31 -23 -42 -7 -10 -32 -49 -55 -86 -24 -36
-43 -69 -43 -72 0 -6 -76 -124 -121 -189 -11 -16 -17 -28 -14 -28 3 0 42 24
86 54 l81 54 101 -71 c234 -163 316 -226 409 -315 175 -168 250 -318 252 -502
1 -52 -3 -112 -7 -132 l-8 -38 94 0 95 0 21 51 c58 134 76 296 46 414 -60 237
-296 495 -754 824 -148 107 -146 105 -160 78z"/>
<path d="M1606 1845 c-165 -72 -184 -82 -175 -88 119 -86 322 -288 388 -386
145 -213 163 -434 55 -656 -19 -38 -44 -82 -57 -97 l-22 -27 -457 -3 c-251 -2
-460 -7 -465 -11 -12 -12 28 -76 86 -140 l54 -58 385 2 384 2 82 60 c110 82
207 176 277 270 l59 79 0 350 0 350 -46 69 c-25 38 -80 105 -121 149 -77 82
-228 210 -248 210 -5 0 -86 -34 -179 -75z"/>
<path d="M747 1425 c-227 -194 -317 -425 -257 -661 58 -228 225 -439 523 -663
l137 -103 82 65 c46 35 112 92 148 126 l65 62 -203 -6 -203 -6 -65 63 c-169
161 -254 357 -224 511 33 169 123 317 268 439 l44 36 -44 40 c-37 34 -126 108
-179 149 -14 11 -28 3 -92 -52z"/>
<path d="M208 1058 c-21 -35 -60 -99 -87 -143 l-50 -80 21 -35 c60 -98 189
-241 312 -345 54 -46 64 -50 122 -55 35 -3 64 -5 64 -5 0 0 -28 30 -63 65
-155 159 -260 379 -275 575 l-7 87 -37 -64z"/>
</g>
</svg>
